<?xml version="1.0" encoding="utf-8"?>
<svg version="1.1" id="ff" x="0px" y="0px" width="180px" height="171px" viewBox="36.08 41.87 76.002 87.26" enable-background="new 0 0 379 171" xmlns="http://www.w3.org/2000/svg">
  <g>
    <path fill="none" stroke="#023A51" stroke-width="2" stroke-linecap="round" stroke-linejoin="round" stroke-miterlimit="10" d=" M95.793,69.27c7.62,0.96,13.513,7.463,13.513,15.343c0,7.474-5.301,13.709-12.348,15.151"/>
    <g>
      <path fill="#023A51" d="M55.674,56.076c-6.54,0-11.87,5.33-11.87,11.87c0,0.9,0.115,1.799,0.318,2.674 c-4.341,3.032-7.078,8.06-7.078,13.626c0,9.17,7.46,16.63,16.63,16.63c0.55,0,1-0.44,1-1c0-0.55-0.45-1-1-1 c-8.07,0-14.63-6.56-14.63-14.63c0-5.053,2.565-9.604,6.606-12.248c0.018-0.007,0.04-0.014,0.054-0.022 c0.372-0.178,0.572-0.564,0.544-0.969c-0.005-0.074-0.003-0.147-0.024-0.221c-0.11-0.36-0.2-0.72-0.25-1.09 c-0.013-0.061-0.016-0.123-0.028-0.185c-0.094-0.513-0.142-1.038-0.142-1.565c0-5.44,4.43-9.87,9.87-9.87s9.87,4.43,9.87,9.87 c0,0.55,0.45,1,1,1c0.55,0,1-0.45,1-1C67.544,61.406,62.214,56.076,55.674,56.076z"/>
      <g>
        <path fill="#023A51" d="M75.175,121.746c-12.131,0-22-9.869-22-22s9.869-22,22-22s22,9.869,22,22S87.306,121.746,75.175,121.746 z M75.175,79.746c-11.028,0-20,8.972-20,20s8.972,20,20,20s20-8.972,20-20S86.203,79.746,75.175,79.746z"/>
      </g>
      <ellipse fill="none" stroke="#023A51" stroke-width="2" stroke-linecap="round" stroke-linejoin="round" stroke-miterlimit="10" cx="75.174" cy="99.746" rx="11.5" ry="21"/>
      <g>
        <path fill="#023A51" d="M92.992,90H57.716c-0.557,0-1.008-0.448-1.008-1s0.451-1,1.008-1h35.276C93.549,88,94,88.448,94,89 S93.549,90,92.992,90z"/>
      </g>
      <g>
        <path fill="#023A51" d="M92.365,112H58.01c-0.558,0-1.01-0.448-1.01-1s0.452-1,1.01-1h34.354c0.558,0,1.01,0.448,1.01,1 S92.923,112,92.365,112z"/>
      </g>
      <g>
        <path fill="#023A51" d="M96,100.43H54c-0.553,0-1-0.448-1-1s0.447-1,1-1h42c0.553,0,1,0.448,1,1S96.553,100.43,96,100.43z"/>
      </g>
      <g>
        <path fill="#023A51" d="M75.18,120.73c-0.553,0-1-0.448-1-1v-41c0-0.552,0.447-1,1-1s1,0.448,1,1v41 C76.18,120.282,75.733,120.73,75.18,120.73z"/>
      </g>
      <path fill="none" stroke="#023A51" stroke-width="2" stroke-linecap="round" stroke-linejoin="round" stroke-miterlimit="10" d=" M61.346,58.619c3.884-5.256,10.125-8.664,17.161-8.664c11.339,0,20.612,8.851,21.285,20.021"/>
    </g>
  </g>
</svg>