<?xml version="1.0" encoding="utf-8"?>
<svg version="1.1" id="Слой_1" x="0px" y="0px" width="379px" height="171px" viewBox="36.08 41.87 307.873 87.26" enable-background="new 0 0 379 171" xmlns="http://www.w3.org/2000/svg">
  <g>
    <g>
      <g>
        <path fill="#023A51" d="M139.698,89.176h-12.335c-0.392,0-0.729-0.141-1.012-0.424c-0.284-0.283-0.425-0.555-0.425-0.816 c0-0.261,0.022-0.457,0.066-0.588l14.228-41.705c0.392-1.436,1.37-2.154,2.937-2.154h18.144c1.565,0,2.545,0.717,2.937,2.154 l14.228,41.705c0.042,0.131,0.065,0.326,0.065,0.588c0,0.26-0.142,0.533-0.425,0.816c-0.283,0.283-0.62,0.424-1.012,0.424 h-12.334c-1.393,0-2.373-0.74-2.937-2.219l-1.631-4.569h-15.925l-1.631,4.569C142.068,88.436,141.09,89.176,139.698,89.176z M156.863,69.661l-4.635-13.575l-4.633,13.575H156.863z"/>
        <path fill="#023A51" d="M224.901,84.537c-4.286,3.137-10.083,4.704-17.393,4.704c-7.309,0-13.107-1.568-17.393-4.704 c-4.286-3.136-6.428-8.033-6.428-14.692V45.23c0-0.473,0.174-0.88,0.522-1.224c0.347-0.344,0.76-0.516,1.24-0.516h13.641 c0.478,0,0.891,0.171,1.24,0.513c0.347,0.342,0.522,0.748,0.522,1.218v25.517c0,1.753,0.597,3.099,1.795,4.04 c1.195,0.94,2.817,1.41,4.861,1.41c2.045,0,3.666-0.471,4.863-1.41c1.197-0.941,1.795-2.286,1.795-4.04V45.221 c0-0.47,0.174-0.876,0.522-1.218c0.347-0.342,0.76-0.513,1.24-0.513h13.641c0.478,0,0.891,0.172,1.24,0.516 c0.347,0.344,0.522,0.751,0.522,1.224v24.615C231.331,76.504,229.187,81.401,224.901,84.537z"/>
        <path fill="#023A51" d="M240.468,43.49h45.033c0.478,0,0.891,0.174,1.24,0.522c0.349,0.349,0.522,0.762,0.522,1.24V55.76 c0,0.479-0.174,0.892-0.522,1.24c-0.349,0.349-0.762,0.522-1.24,0.522h-14.033v29.892c0,0.479-0.174,0.892-0.521,1.24 c-0.349,0.349-0.762,0.522-1.241,0.522h-13.445c-0.479,0-0.892-0.174-1.24-0.522c-0.349-0.347-0.522-0.76-0.522-1.24V57.522 h-14.031c-0.479,0-0.892-0.174-1.241-0.522c-0.349-0.348-0.521-0.761-0.521-1.24V45.252c0-0.479,0.172-0.892,0.521-1.24 C239.576,43.664,239.989,43.49,240.468,43.49z"/>
        <path fill="#023A51" d="M326.749,43.49h13.445c0.478,0,0.891,0.174,1.24,0.522c0.347,0.349,0.522,0.762,0.522,1.24v42.162 c0,0.479-0.175,0.892-0.522,1.24c-0.349,0.349-0.762,0.522-1.24,0.522h-13.445c-0.481,0-0.892-0.174-1.241-0.522 c-0.349-0.347-0.522-0.76-0.522-1.24V73.512h-13.053v13.902c0,0.479-0.174,0.892-0.522,1.24c-0.349,0.349-0.762,0.522-1.24,0.522 h-13.445c-0.479,0-0.892-0.163-1.24-0.489c-0.349-0.326-0.522-0.75-0.522-1.273V45.252c0-0.479,0.174-0.892,0.522-1.24 c0.347-0.347,0.76-0.522,1.24-0.522h13.445c0.478,0,0.891,0.174,1.24,0.522c0.349,0.349,0.522,0.762,0.522,1.24v13.379h13.053 V45.252c0-0.479,0.174-0.892,0.522-1.24C325.857,43.664,326.268,43.49,326.749,43.49z"/>
      </g>
      <g>
        <path fill="#023A51" d="M125.926,127.171v-24.683h7.681c2.193,0,4.157,0.489,5.888,1.466c1.731,0.978,3.082,2.368,4.054,4.17 c0.972,1.803,1.457,3.851,1.457,6.145v1.136c0,2.294-0.477,4.334-1.431,6.119s-2.3,3.17-4.037,4.153 c-1.738,0.983-3.698,1.481-5.881,1.492H125.926z M131.07,106.607v16.478h2.486c2.011,0,3.548-0.65,4.611-1.95 c1.064-1.3,1.606-3.159,1.629-5.577v-1.306c0-2.509-0.525-4.41-1.578-5.704c-1.051-1.294-2.588-1.941-4.611-1.941H131.07z"/>
        <path fill="#023A51" d="M170.081,116.473h-9.875v6.612h11.589v4.085h-16.732v-24.683h16.697v4.119h-11.554v5.882h9.875V116.473z"/>
        <path fill="#023A51" d="M187.852,102.488l6.412,17.902l6.376-17.902h6.755v24.683h-5.161v-6.747l0.514-11.646l-6.737,18.393 h-3.531l-6.721-18.377l0.515,11.63v6.747h-5.143v-24.683H187.852z"/>
        <path fill="#023A51" d="M238.711,115.389c0,2.43-0.435,4.56-1.303,6.391c-0.868,1.83-2.112,3.244-3.729,4.238 c-1.616,0.994-3.471,1.492-5.562,1.492c-2.069,0-3.915-0.492-5.537-1.475c-1.624-0.984-2.881-2.388-3.772-4.213 c-0.891-1.825-1.342-3.924-1.354-6.298v-1.221c0-2.429,0.442-4.569,1.328-6.416c0.886-1.848,2.137-3.266,3.755-4.256 c1.616-0.989,3.465-1.483,5.545-1.483c2.08,0,3.929,0.495,5.547,1.483c1.616,0.989,2.868,2.407,3.754,4.256 c0.886,1.847,1.329,3.981,1.329,6.399V115.389z M233.499,114.27c0-2.588-0.468-4.554-1.405-5.899 c-0.937-1.344-2.275-2.017-4.012-2.017c-1.725,0-3.058,0.664-3.993,1.992c-0.937,1.328-1.413,3.274-1.424,5.84v1.204 c0,2.52,0.469,4.475,1.407,5.865c0.936,1.39,2.285,2.085,4.045,2.085c1.725,0,3.052-0.67,3.978-2.009 c0.926-1.339,1.394-3.292,1.405-5.858V114.27z"/>
        <path fill="#023A51" d="M277.922,122.085h-9.018l-1.714,5.086h-5.469l9.292-24.683h4.766l9.342,24.683h-5.468L277.922,122.085z M270.293,117.965h6.24l-3.137-9.239L270.293,117.965z"/>
        <path fill="#023A51" d="M298.916,118.474v8.696h-5.143v-24.683h9.738c1.873,0,3.523,0.339,4.945,1.017 c1.423,0.679,2.518,1.642,3.283,2.891c0.765,1.248,1.148,2.67,1.148,4.263c0,2.419-0.837,4.326-2.511,5.721 c-1.675,1.396-3.992,2.094-6.952,2.094H298.916z M298.916,114.355h4.595c1.359,0,2.397-0.317,3.111-0.95 c0.715-0.632,1.072-1.537,1.072-2.712c0-1.209-0.36-2.187-1.081-2.933c-0.719-0.745-1.714-1.13-2.983-1.153h-4.714V114.355z"/>
        <path fill="#023A51" d="M327.881,118.474v8.696h-5.142v-24.683h9.738c1.875,0,3.523,0.339,4.944,1.017 c1.424,0.679,2.518,1.642,3.284,2.891c0.767,1.248,1.148,2.67,1.148,4.263c0,2.419-0.838,4.326-2.512,5.721 c-1.674,1.396-3.991,2.094-6.951,2.094H327.881z M327.881,114.355h4.596c1.358,0,2.397-0.317,3.112-0.95 c0.712-0.632,1.071-1.537,1.071-2.712c0-1.209-0.362-2.187-1.079-2.933c-0.721-0.745-1.717-1.13-2.983-1.153h-4.717V114.355z"/>
      </g>
    </g>
    <g>
      <path fill="none" stroke="#023A51" stroke-width="2" stroke-linecap="round" stroke-linejoin="round" stroke-miterlimit="10" d=" M95.793,69.27c7.62,0.96,13.513,7.463,13.513,15.343c0,7.474-5.301,13.709-12.348,15.151"/>
      <g>
        <path fill="#023A51" d="M55.674,56.076c-6.54,0-11.87,5.33-11.87,11.87c0,0.9,0.115,1.799,0.318,2.674 c-4.341,3.032-7.078,8.06-7.078,13.626c0,9.17,7.46,16.63,16.63,16.63c0.55,0,1-0.44,1-1c0-0.55-0.45-1-1-1 c-8.07,0-14.63-6.56-14.63-14.63c0-5.053,2.565-9.604,6.606-12.248c0.018-0.007,0.04-0.014,0.054-0.022 c0.372-0.178,0.572-0.564,0.544-0.969c-0.005-0.074-0.003-0.147-0.024-0.221c-0.11-0.36-0.2-0.72-0.25-1.09 c-0.013-0.061-0.016-0.123-0.028-0.185c-0.094-0.513-0.142-1.038-0.142-1.565c0-5.44,4.43-9.87,9.87-9.87s9.87,4.43,9.87,9.87 c0,0.55,0.45,1,1,1c0.55,0,1-0.45,1-1C67.544,61.406,62.214,56.076,55.674,56.076z"/>
        <g>
          <path fill="#023A51" d="M75.175,121.746c-12.131,0-22-9.869-22-22s9.869-22,22-22s22,9.869,22,22S87.306,121.746,75.175,121.746 z M75.175,79.746c-11.028,0-20,8.972-20,20s8.972,20,20,20s20-8.972,20-20S86.203,79.746,75.175,79.746z"/>
        </g>
        <ellipse fill="none" stroke="#023A51" stroke-width="2" stroke-linecap="round" stroke-linejoin="round" stroke-miterlimit="10" cx="75.174" cy="99.746" rx="11.5" ry="21"/>
        <g>
          <path fill="#023A51" d="M92.992,90H57.716c-0.557,0-1.008-0.448-1.008-1s0.451-1,1.008-1h35.276C93.549,88,94,88.448,94,89 S93.549,90,92.992,90z"/>
        </g>
        <g>
          <path fill="#023A51" d="M92.365,112H58.01c-0.558,0-1.01-0.448-1.01-1s0.452-1,1.01-1h34.354c0.558,0,1.01,0.448,1.01,1 S92.923,112,92.365,112z"/>
        </g>
        <g>
          <path fill="#023A51" d="M96,100.43H54c-0.553,0-1-0.448-1-1s0.447-1,1-1h42c0.553,0,1,0.448,1,1S96.553,100.43,96,100.43z"/>
        </g>
        <g>
          <path fill="#023A51" d="M75.18,120.73c-0.553,0-1-0.448-1-1v-41c0-0.552,0.447-1,1-1s1,0.448,1,1v41 C76.18,120.282,75.733,120.73,75.18,120.73z"/>
        </g>
        <path fill="none" stroke="#023A51" stroke-width="2" stroke-linecap="round" stroke-linejoin="round" stroke-miterlimit="10" d=" M61.346,58.619c3.884-5.256,10.125-8.664,17.161-8.664c11.339,0,20.612,8.851,21.285,20.021"/>
      </g>
    </g>
  </g>
</svg>